<?xml version="1.0" encoding="utf-8"?>
<!-- Generator: Adobe Illustrator 16.0.3, SVG Export Plug-In . SVG Version: 6.00 Build 0)  -->
<!DOCTYPE svg PUBLIC "-//W3C//DTD SVG 1.1//EN" "http://www.w3.org/Graphics/SVG/1.1/DTD/svg11.dtd">
<svg version="1.1" id="uofl" xmlns="http://www.w3.org/2000/svg" xmlns:xlink="http://www.w3.org/1999/xlink" x="0px" y="0px"
	 width="1252.672px" height="756.199px" viewBox="376.125 621.738 1252.672 756.199"
	 enable-background="new 376.125 621.738 1252.672 756.199" xml:space="preserve">
<title>uofl-monogram_RGB</title>
<g id="Monogram_Knocked_Out_Red">
	<g>
		<g fill="#fff">
			<path d="M966.143,1089.467c-55.675,0-85.907-40.461-85.907-94.258s32.369-93.286,85.065-93.286
				s82.217,41.237,83.835,88.237V621.738h-191.3v435.748c0,100.279-25.895,180.748-143.134,180.748
				c-127.533,0-146.307-90.633-146.307-195.378V621.738H376.125v459.637c0,51.207,2.071,155.693,92.963,226.581
				c40.785,32.369,116.01,69.981,242.441,69.981c120.153,0,244.514-30.297,303.037-136.855
				c32.368-59.559,34.505-128.568,34.505-174.791V998.77c-1.618,46.676-29.456,90.633-82.993,90.633"/>
			<path d="M930.666,995.209c0,32.369,13.53,51.79,34.117,51.79c23.629,0,33.922-26.283,33.922-50.754
				c0-28.29-10.487-52.308-33.469-52.308c-20.651,0-34.57,20.004-34.57,51.79"/>
			<polygon points="1275.522,1212.145 1275.522,621.738 1082.217,621.738 1082.217,902.765 1194.342,902.765 
				1194.342,947.174 1132.906,947.174 1132.906,978.766 1184.631,978.766 1184.631,1023.111 1132.906,1023.111 1132.906,1090.309 
				1082.217,1090.309 1082.217,1359.487 1529.488,1359.487 1615.136,1212.145 			"/>
			<path d="M1606.396,1361.105c-12.336-0.035-22.306-10.064-22.27-22.398c0.035-12.336,10.063-22.306,22.398-22.271
				c12.31,0.036,22.27,10.025,22.27,22.335c0.181,12.154-9.525,22.154-21.681,22.335
				C1606.875,1361.11,1606.636,1361.109,1606.396,1361.105 M1626.854,1338.771c0.035-11.263-9.065-20.422-20.328-20.457
				c-11.262-0.036-20.421,9.065-20.457,20.327c-0.035,11.263,9.065,20.421,20.328,20.457c11.117,0.18,20.275-8.688,20.455-19.806
				C1626.854,1339.119,1626.854,1338.945,1626.854,1338.771 M1608.145,1324.529c4.207,0,8.998,1.618,8.998,7.186
				c0.023,3.293-2.428,6.079-5.697,6.474c2.201,0.972,3.302,2.137,4.014,5.956c0.098,2.914,0.85,5.768,2.201,8.351h-5.697
				c-0.637-1.234-1.053-2.57-1.229-3.948c-0.267-1.414-0.461-2.84-0.583-4.273c-0.906-4.531-3.042-4.531-8.156-4.531v12.947h-5.114
				v-28.29L1608.145,1324.529z M1601.67,1336.053h4.208c3.755,0,6.021-0.972,6.021-3.949c0-2.979-2.719-3.625-5.567-3.625h-4.661
				V1336.053z"/>
		</g>
	</g>
</g>
</svg>