<svg xmlns="http://www.w3.org/2000/svg" width="412.688" height="412.688" viewBox="0 0 412.688 412.688"><path d="M0,206.344C0,92.371,92.371,0,206.344,0S412.688,92.371,412.688,206.344,320.317,412.688,206.344,412.688,0,320.317,0,206.344Zm321.848,83.827H277.275v32.241h6.448A38.655,38.655,0,0,0,321.848,290.171Zm-38.125-45.138h-6.448v32.241h44.574A38.655,38.655,0,0,0,283.723,245.034Zm-19.345,32.241V245.034H212.792v32.241Zm0,45.138V290.171H212.792v32.241ZM148.31,245.034v32.241H199.9V245.034Zm0,45.138v32.241H199.9V290.171Zm-12.9-12.9V245.034h-6.448A38.655,38.655,0,0,0,90.84,277.275Zm0,45.138V290.171H90.84a38.655,38.655,0,0,0,38.125,32.241Zm6.771-180.551a25.793,25.793,0,1,0,25.793,25.793A25.765,25.765,0,0,0,142.184,141.862Zm128.965,51.586a25.793,25.793,0,1,0-25.793-25.793A25.817,25.817,0,0,0,271.149,193.448Z"/></svg>